<?xml version="1.0" standalone="no"?>
<!DOCTYPE svg PUBLIC "-//W3C//DTD SVG 20010904//EN"
 "http://www.w3.org/TR/2001/REC-SVG-20010904/DTD/svg10.dtd">
<svg version="1.0" xmlns="http://www.w3.org/2000/svg"
 width="952.000000pt" height="968.000000pt" viewBox="0 0 952.000000 968.000000"
 preserveAspectRatio="xMidYMid meet">

<g transform="translate(0.000000,968.000000) scale(0.100000,-0.100000)"
fill="#000000" stroke="none">
<path d="M1656 7570 c-193 -24 -285 -69 -422 -205 -135 -135 -172 -211 -214
-438 -28 -155 -38 -308 -50 -767 -14 -573 -30 -702 -100 -846 -73 -150 -192
-233 -423 -294 l-87 -23 0 -206 c0 -113 3 -216 6 -227 5 -18 22 -26 102 -44
180 -41 291 -111 366 -228 109 -170 121 -250 136 -907 12 -515 16 -597 40
-740 38 -222 93 -339 220 -465 161 -162 308 -211 673 -226 l177 -7 0 230 0
231 -82 7 c-395 32 -451 72 -493 350 -16 109 -18 164 -35 765 -13 462 -28 567
-105 752 -73 172 -217 332 -381 422 -49 27 -91 50 -93 52 -6 5 34 37 134 108
118 83 184 143 241 219 86 114 130 220 170 407 23 107 26 144 35 550 15 696
27 841 79 924 34 57 108 115 164 131 59 17 219 35 305 35 l59 0 5 48 c6 67 2
381 -6 389 -11 10 -345 13 -421 3z"/>
<path d="M7480 7356 l0 -226 83 0 c113 0 252 -17 310 -37 94 -34 164 -117 186
-223 7 -33 16 -237 21 -520 12 -595 27 -774 81 -967 51 -184 154 -333 321
-464 99 -79 182 -150 186 -160 2 -4 -37 -28 -85 -53 -135 -70 -270 -212 -347
-366 -102 -202 -132 -413 -146 -1035 -12 -504 -21 -617 -56 -695 -46 -100 -97
-138 -229 -165 -74 -15 -237 -34 -297 -35 l-28 0 0 -231 0 -232 158 6 c210 9
320 23 425 57 257 82 428 284 488 574 23 110 38 370 39 641 1 494 42 871 111
1008 52 102 134 184 238 238 24 12 94 34 155 49 l111 26 -1 222 c-1 151 -5
226 -13 235 -6 8 -40 17 -77 21 -87 9 -161 38 -234 92 -129 95 -183 171 -219
306 -44 164 -57 325 -76 943 -16 514 -22 586 -65 713 -41 120 -82 183 -185
288 -160 163 -278 201 -647 211 l-208 6 0 -227z"/>
<path d="M4332 7020 c-107 -39 -203 -133 -243 -238 -79 -211 109 -465 346
-467 60 0 80 5 136 32 37 18 90 52 120 75 l53 43 406 7 c223 3 423 11 444 17
112 28 154 132 100 246 -41 87 -81 93 -582 94 l-344 1 -31 37 c-100 118 -177
165 -281 169 -52 3 -85 -1 -124 -16z"/>
<path d="M5629 6257 c-60 -17 -138 -68 -186 -120 -37 -42 -37 -42 -128 -49
-49 -3 -396 -7 -770 -8 -374 -1 -725 -5 -780 -9 -99 -6 -100 -6 -114 -36 -8
-16 -17 -68 -19 -115 -3 -70 -1 -88 12 -99 23 -19 398 -30 1076 -31 311 0 589
-3 618 -7 44 -5 55 -10 62 -29 5 -13 38 -52 72 -88 57 -57 72 -67 137 -86 189
-58 386 34 452 210 30 81 24 195 -14 271 -41 79 -117 154 -184 179 -70 26
-175 34 -234 17z"/>
<path d="M3173 5529 c-122 -23 -252 -127 -292 -234 -34 -88 -33 -192 1 -267
35 -75 107 -151 177 -185 49 -24 68 -28 146 -28 111 0 143 11 236 81 41 31 85
61 99 67 16 6 259 13 695 17 369 4 678 10 688 15 10 4 30 28 45 54 38 65 38
147 0 212 -15 25 -34 52 -43 59 -23 19 -338 29 -925 29 l-465 0 -58 55 c-59
56 -175 120 -232 129 -16 2 -49 0 -72 -4z"/>
<path d="M5364 5340 c-77 -12 -118 -28 -147 -58 -51 -53 -62 -134 -27 -202 46
-91 110 -104 490 -98 297 5 315 8 365 73 63 84 37 200 -60 260 l-48 30 -261 2
c-144 1 -284 -2 -312 -7z"/>
<path d="M6269 4717 c-20 -8 -61 -29 -90 -47 -48 -30 -65 -34 -154 -41 -55 -4
-473 -8 -930 -9 -952 -1 -1307 -10 -1355 -35 -79 -41 -128 -141 -115 -235 8
-56 57 -144 98 -174 28 -21 32 -21 1187 -25 l1158 -3 29 -27 c36 -36 109 -84
151 -100 48 -20 184 -9 247 18 123 55 185 133 206 261 13 81 -3 189 -36 245
-33 58 -107 122 -172 152 -68 31 -170 40 -224 20z"/>
<path d="M3161 4004 c-74 -20 -110 -44 -179 -120 -73 -79 -109 -172 -97 -251
24 -163 136 -295 273 -324 43 -9 76 -9 134 -1 138 20 220 75 279 187 l24 45
915 1 c503 1 976 4 1050 8 l135 6 3 100 c4 158 138 140 -1015 142 -543 2
-1016 6 -1050 9 -61 5 -62 6 -101 58 -52 69 -120 111 -217 136 -91 23 -84 23
-154 4z"/>
<path d="M6122 3789 c-94 -12 -100 -15 -113 -62 -20 -74 5 -146 59 -170 18 -7
96 -12 227 -12 189 0 202 1 242 22 51 28 72 80 57 140 -12 49 -47 72 -125 83
-76 11 -258 11 -347 -1z"/>
<path d="M5140 3227 c-34 -13 -117 -56 -213 -112 l-49 -28 -386 -8 c-213 -4
-403 -13 -423 -18 -74 -22 -124 -109 -107 -185 14 -64 53 -122 90 -136 23 -9
149 -15 403 -21 204 -4 384 -10 402 -14 17 -3 38 -16 46 -28 30 -46 104 -110
152 -132 97 -45 209 -41 310 11 73 38 121 89 163 173 31 62 36 83 36 141 0
130 -92 261 -227 326 -84 39 -148 50 -197 31z"/>
<path d="M0 40 l0 -40 4760 0 4760 0 0 40 0 40 -4760 0 -4760 0 0 -40z"/>
</g>
</svg>
